<?xml version="1.0" encoding="UTF-8"?>
<!-- Generator: visioncortex VTracer 1.0.0-alpha.4 -->
<svg version="1.1" xmlns="http://www.w3.org/2000/svg" width="3610" height="2659" viewBox="0 0 3610 2659">
<path d="M2053,1680c124.3,6.4,247.86,18.93,369.64,45.36c358.96,77.92,737.9,271.38,1027.97,495.54c19.71,15.24,155.37,116.36,159.39,126.1c6.26,15.18,.78,51.84,0,69c-28.98-9.38-62.07-34.47-89.15-49.74c-69.34-39.13-139.05-77.65-208.17-117.16c-217.81-124.5-429.25-246.93-667.76-329.05c-628.48-216.41-1280.18-91.97-1865.8,190.45c-210.7,101.61-415.64,222.88-596.28,372.2c-46.99,38.84-92.04,79.6-134.76,123.1C31.34,2622.84,16.88,2642.24,0,2659c-.39-21.34-5.6-130.26,.12-141.85c5.21-10.55,23.47-24.73,32.3-33.6c56.48-56.74,116.92-108.39,179.88-157.79C580.62,2036.82,1064.13,1828.07,1520,1729c-196.1-35.49-382.3-133.52-511.07-287.76c-56.04-67.13-103.99-134.65-137.98-215.89c-148.17-354.26,31.39-735.68,293.72-980.82c98.01-91.58,239.78-192.05,369.04-230.8c79.45-23.82,166.87-23.49,230.41,36.71c15.89,15.06,12.31,59.99-2.87,71.22c-2.53,1.87-5.1,2.55-8.19,1.88c-5.41-1.17-7.72-6.71-12.06-8.54c-15.44-6.51-62.16,13.86-76.97,20.56c-53.34,24.16-108.39,46.82-159.88,74.68c-88.6,47.92-170.59,111.24-241.8,182.28C1256.7,398.16,1220.32,439,1218,439c-5.34,12.27-22.01,27.32-30.71,38.41c-20.72,26.4-40.17,53.54-58.27,81.8c-70.97,110.75-121.6,237.59-129.36,369.88c-6.41,109.22,18.71,218.08,69.81,314.64c196.41,371.17,706.67,392.79,1048.07,230.32c332.21-158.1,386.82-500.48,224.44-808.12c-47.4-89.81-114.51-161.32-177.06-240.07c-32.84-41.36-60.8-86.59-92.19-129.05c-33.73-45.64-71.92-83.89-111.9-123.75c-3.31-3.3-8.86-8.15-5.98-13.31c4.11-7.37,11.2-7.87,17.97-4.07c55.16,30.97,110.67,61.16,165.99,91.83c83.97,46.56,165.35,97.59,228.9,170.99c3.58,4.14,17.29,18,17.29,22.5c5.82,0,58.12,73.22,65.5,83.47c181.46,252.13,231.13,625.3,29.42,881.07c-7.86,9.97-59.4,72.46-67.92,72.46c0,4.48-22.86,21.94-27.61,25.87c-99.05,82.09-210.46,134.56-331.39,176.13Z" fill="#000000"/>
</svg>
